<?xml version="1.0" encoding="UTF-8"?>
<svg version="1.1" xmlns="http://www.w3.org/2000/svg" width="1126" height="323">
<path d="M0 0 C371.58 0 743.16 0 1126 0 C1126 106.59 1126 213.18 1126 323 C754.42 323 382.84 323 0 323 C0 216.41 0 109.82 0 0 Z " fill="#F3F7F2" transform="translate(0,0)"/>
<path d="M0 0 C2 0 2 0 4.1497345 2.02671814 C5.10094835 3.01673207 6.05090885 4.00795092 7 5 C8.16737171 6.16883413 9.33796107 7.33445981 10.5110321 8.49757385 C11.16290497 9.1465564 11.81477783 9.79553894 12.48640442 10.46418762 C13.18529282 11.15993393 13.88418121 11.85568024 14.60424805 12.57250977 C22.21574475 20.15133954 29.8221527 27.73525595 37.42569256 35.32206821 C42.02310717 39.90901302 46.62238543 44.49405749 51.22583008 49.07495117 C55.68389768 53.51132441 60.13709364 57.95253383 64.5869236 62.39716911 C66.28327654 64.08982436 67.98138992 65.7807172 69.68128014 67.46982002 C72.05349121 69.82755889 74.41941586 72.19143601 76.78393555 74.55688477 C77.48889664 75.2546553 78.19385773 75.95242584 78.92018127 76.67134094 C79.56359467 77.31750366 80.20700806 77.96366638 80.86991882 78.62940979 C81.42940562 79.187053 81.98889242 79.74469622 82.56533337 80.31923771 C85.19393253 83.39873384 86.2477642 86.00587342 86.26742554 90.04048157 C86.27595551 90.83520874 86.28448547 91.62993591 86.29327393 92.44874573 C86.29236755 93.31168747 86.29146118 94.17462921 86.29052734 95.0637207 C86.29724457 95.97964996 86.30396179 96.89557922 86.31088257 97.83926392 C86.32988491 100.86815818 86.33378805 103.89683108 86.3359375 106.92578125 C86.34236438 109.03321931 86.34909266 111.14065647 86.35610962 113.24809265 C86.36808835 117.66728788 86.37178988 122.08640491 86.37060547 126.50561523 C86.37040237 132.16159862 86.3976931 137.81707905 86.43214989 143.47294331 C86.45441577 147.82675976 86.45844308 152.18045518 86.45738602 156.53432274 C86.45974288 158.61907877 86.46857116 160.70383809 86.48405075 162.78853798 C86.50370194 165.70874588 86.49787563 168.6278694 86.48583984 171.5480957 C86.49707886 172.40496475 86.50831787 173.2618338 86.51989746 174.14466858 C86.45975591 179.90280721 85.35460123 183.28137144 82 188 C78.36373936 190.42417376 76.64414193 190.25832548 72.31298828 190.2746582 C71.63783173 190.27976913 70.96267517 190.28488007 70.26705933 190.29014587 C68.03472023 190.30404772 65.80268974 190.30308447 63.5703125 190.30078125 C62.01715988 190.30466838 60.46400833 190.30900308 58.91085815 190.31376648 C55.6542415 190.32123033 52.39773324 190.32093663 49.14111328 190.31567383 C44.97250944 190.30988438 40.80435067 190.32679635 36.63582039 190.3500185 C33.42729101 190.36476919 30.21886841 190.36562565 27.01031113 190.36250877 C25.47375483 190.3630215 23.93719248 190.36825008 22.4006691 190.37832069 C20.24875472 190.39069164 18.09770192 190.38388999 15.94580078 190.37231445 C14.72240997 190.37294388 13.49901917 190.3735733 12.23855591 190.3742218 C7.27869654 189.80109984 4.98537175 188.23069995 1.88532066 184.35882854 C-0.25744061 180.54135184 -0.55318502 177.66086208 -0.48101807 173.40701294 C-0.48443577 172.66276341 -0.48785347 171.91851389 -0.49137473 171.15171134 C-0.49794078 168.66861474 -0.47599987 166.18660956 -0.45410156 163.70361328 C-0.4529728 161.91949997 -0.4536075 160.13538481 -0.45587158 158.35127258 C-0.45701855 153.51484205 -0.43351198 148.67880889 -0.40557575 143.84247065 C-0.38055926 138.78561579 -0.3782199 133.72875167 -0.37347412 128.67184448 C-0.36104509 119.09902055 -0.32822439 109.52637948 -0.28807616 99.95363605 C-0.24335626 89.05409287 -0.22137085 78.15454092 -0.20129442 67.25492883 C-0.15949176 44.83651786 -0.08914103 22.41826918 0 0 Z " fill="#3EBE73" transform="translate(99,97)"/>
<path d="M0 0 C1.28145401 -0.01245758 2.56290802 -0.02491516 3.88319397 -0.03775024 C5.26386082 -0.02037358 6.64451232 -0.00173754 8.02514648 0.01806641 C9.45808408 0.0191053 10.89102455 0.01806335 12.32395935 0.01504517 C15.31748378 0.01522395 18.30992351 0.03594361 21.30322266 0.07226562 C25.1288744 0.11768302 28.95294696 0.11871516 32.77879429 0.10523033 C35.73440954 0.0985295 38.68966848 0.11184933 41.64521599 0.1314888 C43.05531891 0.13915366 44.46546159 0.14150553 45.87558174 0.13831711 C47.84943745 0.13757063 49.82323862 0.16587856 51.796875 0.1953125 C52.91715591 0.20452728 54.03743683 0.21374207 55.19166565 0.22323608 C59.96756116 1.01574357 63.07503377 3.07545508 65.98487663 6.93420506 C67.68646804 10.4795547 67.70295451 13.05999142 67.69450378 16.98957825 C67.69706706 17.70847203 67.69963033 18.42736582 67.70227128 19.16804427 C67.70720331 21.57116241 67.69072639 23.97364895 67.67431641 26.37670898 C67.67347001 28.10156235 67.67394553 29.8264168 67.67564392 31.55126953 C67.67650479 36.23067102 67.65886408 40.90984188 67.63792205 45.58918977 C67.61917064 50.48056511 67.61740602 55.37194571 67.61384583 60.26335144 C67.60452085 69.52451137 67.57990091 78.78556509 67.54979736 88.04667825 C67.51626745 98.59071404 67.49977088 109.13475491 67.48471105 119.67883074 C67.45335179 141.36748942 67.40058245 163.05605247 67.33374023 184.74462891 C66.22595337 183.80459576 65.11953145 182.86295397 64.01367188 181.9206543 C63.39738419 181.39645401 62.7810965 180.87225372 62.14613342 180.33216858 C59.55639707 178.06372638 57.17797598 175.64491672 54.77124023 173.18212891 C51.11338588 169.46947524 47.38362747 166.02310905 43.33374023 162.74462891 C42.56475906 161.95355743 41.79577789 161.16248596 41.00349426 160.34744263 C38.45469173 157.86254771 35.93987827 155.95755757 32.99267578 153.97460938 C12.95986705 140.01646789 -11.08626652 122.23246096 -15.75546932 96.85311317 C-17.86965191 82.42923686 -17.79423154 67.90707034 -17.35375977 53.36962891 C-17.32382053 52.24219017 -17.2938813 51.11475143 -17.26303482 49.95314789 C-17.04701287 42.34404784 -16.68099789 34.75408143 -16.17797852 27.15869141 C-16.11546276 26.15907127 -16.05294701 25.15945114 -15.98853683 24.12953949 C-15.79501842 21.31062351 -15.55142332 18.50144917 -15.28613281 15.68847656 C-15.2297379 14.8659181 -15.17334299 14.04335964 -15.11523914 13.19587517 C-14.62965939 8.81497137 -13.73471484 6.29498694 -10.48165894 3.23217773 C-7.01596003 0.65165073 -4.37050638 -0.00490762 0 0 Z " fill="#3CBB70" transform="translate(292.666259765625,22.25537109375)"/>
<path d="M0 0 C2.25439453 1.66552734 2.25439453 1.66552734 4.5703125 3.8359375 C5.44018799 4.64885254 6.31006348 5.46176758 7.20629883 6.29931641 C12.13186996 11.06088836 16.98909329 15.88515374 21.8125 20.75 C22.8324426 21.77497815 23.85262399 22.79971874 24.87304688 23.82421875 C26.74342038 25.70265004 28.61214155 27.58266799 30.47973633 29.46386719 C31.31142334 30.30079102 32.14311035 31.13771484 33 32 C33.8453833 32.85577637 34.6907666 33.71155273 35.56176758 34.59326172 C37.71185389 36.71557582 39.90701437 38.72228373 42.1796875 40.7109375 C49.56975618 47.33320684 56.64778424 54.27733943 63.70800781 61.24804688 C65.33024307 62.84340874 66.95959927 64.43155937 68.59570312 66.01269531 C70.9791973 68.31737274 73.33916188 70.64397811 75.6953125 72.9765625 C76.42952423 73.67778229 77.16373596 74.37900208 77.92019653 75.10147095 C81.1582632 78.35261184 82.83917155 80.07880293 83.64404297 84.68896484 C82.61452867 89.98171426 79.90043556 93.35042775 76.14282227 97.10009766 C74.99131432 98.25622055 74.99131432 98.25622055 73.81654358 99.43569946 C72.5789756 100.66248917 72.5789756 100.66248917 71.31640625 101.9140625 C70.46449203 102.76551849 69.61257782 103.61697449 68.73484802 104.49423218 C66.93586877 106.29019513 65.13446448 108.08373181 63.33081055 109.875 C60.57088634 112.61666913 57.81904667 115.36625432 55.06835938 118.1171875 C53.31817947 119.86245176 51.5675437 121.60725901 49.81640625 123.3515625 C48.99338516 124.17347076 48.17036407 124.99537903 47.32240295 125.8421936 C46.55157883 126.60663788 45.7807547 127.37108215 44.98657227 128.15869141 C44.31167252 128.82977936 43.63677277 129.50086731 42.94142151 130.19229126 C38.91494697 133.94144784 36.79383617 135.33049102 31.09765625 135.3984375 C25.51433588 134.33791855 21.49177131 129.91521136 17.51171875 126.13671875 C16.83783615 125.50078293 16.16395355 124.86484711 15.46965027 124.2096405 C3.00098836 112.33673874 -9.04637943 100.0179835 -21.1875 87.8125 C-25.7138731 83.26239206 -30.24196958 78.71402417 -34.77425575 74.16980553 C-36.5693733 72.36825603 -38.361435 70.56370556 -40.15336609 68.75898743 C-41.25338195 67.65533961 -42.35353813 66.55183163 -43.45385742 65.44848633 C-43.94373642 64.95344101 -44.43361542 64.45839569 -44.93833923 63.948349 C-47.11543394 61.77092307 -49.30489696 59.75880209 -51.72163391 57.8469696 C-54.23697072 55.80789842 -55.79159567 54.17145173 -56.37109375 50.9140625 C-56.39300781 50.15867188 -56.41492188 49.40328125 -56.4375 48.625 C-56.47746094 47.87476563 -56.51742187 47.12453125 -56.55859375 46.3515625 C-55.7586247 42.98386064 -53.42085258 41.33458056 -51 39 C-49.63038065 37.62562521 -48.2639893 36.24802999 -46.89990234 34.86816406 C-42.64639977 30.57903639 -38.38677351 26.29604535 -34.125 22.01513672 C-32.2863046 20.16632066 -30.44939921 18.31572273 -28.61425781 16.46337891 C-25.9636515 13.78860725 -23.30672133 11.12026379 -20.6484375 8.453125 C-19.82652924 7.62089417 -19.00462097 6.78866333 -18.1578064 5.93121338 C-17.01113998 4.78432037 -17.01113998 4.78432037 -15.84130859 3.61425781 C-15.17022064 2.93872864 -14.49913269 2.26319946 -13.80770874 1.56719971 C-9.66884528 -2.02100311 -4.93653195 -1.50336282 0 0 Z " fill="#3EBE73" transform="translate(159,23)"/>
<path d="M0 0 C4.76756149 0.89241033 8.10430947 3.97360425 11.42895508 7.33496094 C12.59090141 8.5019754 12.59090141 8.5019754 13.77632141 9.69256592 C15.01239388 10.94882782 15.01239388 10.94882782 16.2734375 12.23046875 C17.56612801 13.53096161 17.56612801 13.53096161 18.88493347 14.85772705 C21.63772237 17.62830399 24.38374395 20.40546159 27.12890625 23.18359375 C29.86417958 25.94660329 32.60093616 28.7081004 35.34074402 31.46661377 C37.04321524 33.1812103 38.74300766 34.89847234 40.43965149 36.61883545 C44.63112584 40.84522193 48.89710382 44.89146164 53.41047668 48.77157593 C58.71216104 53.3947761 63.67330858 58.40459308 68.68237305 63.33959961 C70.06890731 64.69933463 71.46255468 66.05185233 72.86303711 67.3972168 C74.90499344 69.36005894 76.92301295 71.34495969 78.9375 73.3359375 C79.56345566 73.92890121 80.18941132 74.52186493 80.83433533 75.13279724 C83.7505016 78.06265816 85.66609649 80.36558997 86.40258789 84.50219727 C86.24656899 91.61939951 82.73554159 95.46207525 77.8359375 100.2421875 C77.30425461 100.77199722 76.77257172 101.30180695 76.22477722 101.84767151 C75.10281909 102.96293831 73.97728424 104.07461727 72.84838867 105.18286133 C71.14445259 106.85582995 69.45123762 108.53904903 67.75976562 110.22460938 C62.6040838 115.3426097 57.41095469 120.35169357 51.87963867 125.06713867 C50.17125314 126.51850151 50.17125314 126.51850151 48.20703125 128.6484375 C44.60096724 132.43480471 41.70123334 134.00984809 36.44140625 134.43359375 C31.59059641 134.02784972 29.2217543 133.00085042 25.71533203 129.64892578 C24.85264709 128.83135803 23.98996216 128.01379028 23.10113525 127.17144775 C21.7226944 125.81621002 21.7226944 125.81621002 20.31640625 124.43359375 C19.84161583 123.96935753 19.36682541 123.50512131 18.8776474 123.02681732 C15.72715401 119.94162082 12.60928284 116.82509806 9.50304794 113.69540024 C7.76346868 111.9428189 6.0205759 110.19358995 4.27688599 108.44509888 C0.57886708 104.73577179 -3.11516505 101.02249066 -6.80859375 97.30859375 C-11.10189057 92.99155391 -15.39688319 88.67622856 -19.69613266 84.36511612 C-21.39970637 82.6551379 -23.10020244 80.94214119 -24.80056763 79.22897339 C-30.25503052 73.74890702 -35.78868543 68.44313265 -41.68359375 63.43359375 C-44.18359375 61.12109375 -44.18359375 61.12109375 -45.68359375 59.43359375 C-45.68359375 58.77359375 -45.68359375 58.11359375 -45.68359375 57.43359375 C-46.67359375 57.10359375 -47.66359375 56.77359375 -48.68359375 56.43359375 C-51.13127854 53.63623971 -52.05069706 51.03239757 -52.18359375 47.37109375 C-51.18852804 41.16716368 -46.28057862 37.88103596 -41.7734375 34.0234375 C-36.02077009 29.08257508 -30.79940903 23.59734543 -25.48486328 18.19580078 C-21.23240094 13.90039331 -16.91725799 9.78264683 -12.29980469 5.87988281 C-10.52179674 4.37050036 -10.52179674 4.37050036 -8.74609375 1.99609375 C-5.87100378 -0.18200471 -3.52769805 -0.00613513 0 0 Z " fill="#40C175" transform="translate(276.68359375,152.56640625)"/>
<path d="M0 0 C6.60193129 6.75197519 9.89103278 13.72932742 9.9375 23.125 C9.95167969 24.42050781 9.96585938 25.71601563 9.98046875 27.05078125 C9.44671134 35.76278784 5.06273432 42.12961145 -1.06640625 48.07421875 C-14.94585208 59.12315148 -32.36519827 59.30279928 -49.25 57.8125 C-59.63788262 56.00785847 -68.45210995 50.92998047 -75.25 42.8125 C-81.00952009 34.33395066 -82.02896511 27.00581485 -81.25 16.8125 C-78.94546474 7.42776604 -71.84075259 0.16058096 -63.84765625 -4.87109375 C-43.12943752 -15.37040159 -18.98807762 -12.78043686 0 0 Z " fill="#222346" transform="translate(1036.25,138.1875)"/>
<path d="M0 0 C5.7410413 4.41522348 9.70254401 10.79513202 11.98046875 17.62890625 C13.08273745 29.01436527 11.41545288 36.51745935 4.41015625 45.68359375 C-3.94389864 55.08695021 -19.02146618 59.05620199 -31.2109375 59.83203125 C-46.9545539 60.05094596 -59.20033689 56.86612959 -70.74609375 46.06640625 C-77.19966591 39.14711238 -79.36020576 32.092358 -79.1640625 22.6953125 C-78.50227097 13.23348231 -74.04466692 6.20365873 -67.20703125 -0.18359375 C-48.31442375 -15.56047166 -19.15203027 -13.00263563 0 0 Z " fill="#232347" transform="translate(612.01953125,137.37109375)"/>
<path d="M0 0 C17 0 17 0 22.09765625 3.47265625 C23.46597529 4.96098039 24.78863674 6.49257066 26.0625 8.0625 C27.40513316 9.57636753 28.75017056 11.08810632 30.09765625 12.59765625 C30.74162354 13.34329834 31.38559082 14.08894043 32.04907227 14.85717773 C34.52573628 17.57744804 37.22735662 19.91984913 40.02954102 22.29614258 C43.32186851 25.14302073 46.37122486 28.22633551 49.4375 31.3125 C50.06076172 31.93189453 50.68402344 32.55128906 51.32617188 33.18945312 C51.91849609 33.78306641 52.51082031 34.37667969 53.12109375 34.98828125 C53.6514624 35.51977783 54.18183105 36.05127441 54.72827148 36.59887695 C56 38 56 38 57 40 C57.33 26.8 57.66 13.6 58 0 C64.27 0 70.54 0 77 0 C77 22.11 77 44.22 77 67 C61 67 61 67 55.5 62.4375 C54.8090625 61.59058594 54.118125 60.74367187 53.40625 59.87109375 C51.47923309 57.57181221 49.72845965 55.8284592 47.46875 53.90625 C41.66802449 48.9443549 36.37230054 43.47816268 31 38.0625 C27.37 34.411875 23.74 30.76125 20 27 C19.67 39.87 19.34 52.74 19 66 C12.73 66 6.46 66 0 66 C0 44.22 0 22.44 0 0 Z " fill="#202145" transform="translate(442,129)"/>
<path d="M0 0 C20.46 0 40.92 0 62 0 C62 3.96 62 7.92 62 12 C48.14 12 34.28 12 20 12 C20 16.62 20 21.24 20 26 C32.54 26 45.08 26 58 26 C58 30.29 58 34.58 58 39 C45.46 39 32.92 39 20 39 C20 43.95 20 48.9 20 54 C34.52 54 49.04 54 64 54 C64 57.96 64 61.92 64 66 C42.88 66 21.76 66 0 66 C0 44.22 0 22.44 0 0 Z " fill="#222346" transform="translate(794,129)"/>
<path d="M0 0 C1.40625 1.5625 1.40625 1.5625 1.40625 5.5625 C-0.5625 7.484375 -0.5625 7.484375 -3.09375 9.3125 C-4.34671875 10.23289063 -4.34671875 10.23289063 -5.625 11.171875 C-6.2746875 11.63078125 -6.924375 12.0896875 -7.59375 12.5625 C-9.60857693 11.55508654 -11.6197053 10.54871753 -13.609375 9.4921875 C-22.1256197 5.47228179 -33.18640498 4.7276384 -42.21875 7.75 C-47.73734074 10.71368762 -51.71666758 13.84967255 -54.59375 19.5625 C-55.55528011 25.84276421 -55.30632508 32.23287423 -52.0703125 37.80859375 C-48.54312716 41.99829274 -43.745779 44.845157 -38.59375 46.5625 C-27.91058965 47.30219669 -19.65374888 46.59678507 -10.1875 41.1875 C-7.59375 40.5625 -7.59375 40.5625 -4.69921875 42.1171875 C-3.73628906 42.88289063 -2.77335938 43.64859375 -1.78125 44.4375 C-0.80542969 45.19804687 0.17039062 45.95859375 1.17578125 46.7421875 C1.91183594 47.34289062 2.64789062 47.94359375 3.40625 48.5625 C1.51065173 53.41146131 -1.80428353 54.86337891 -6.2734375 57.16796875 C-20.48692696 63.13763432 -37.0406121 63.4196556 -51.59375 58.5625 C-61.85513003 54.23979267 -69.74115927 47.65588872 -74.59375 37.5625 C-77.01913151 30.13786273 -76.87565698 20.20643015 -73.59375 13.125 C-67.40473434 2.72952244 -58.48211994 -3.22072584 -46.91015625 -6.47265625 C-30.8234558 -10.01271827 -14.00578351 -9.61591107 0 0 Z " fill="#222346" transform="translate(944.59375,135.4375)"/>
<path d="M0 0 C24.09 0 48.18 0 73 0 C73 4.29 73 8.58 73 13 C64.42 13 55.84 13 47 13 C47 30.82 47 48.64 47 67 C40.4 67 33.8 67 27 67 C27 48.85 27 30.7 27 12 C18.09 12 9.18 12 0 12 C0 8.04 0 4.08 0 0 Z " fill="#232348" transform="translate(709,129)"/>
<path d="M0 0 C24.09 0 48.18 0 73 0 C73 3.96 73 7.92 73 12 C64.09 12 55.18 12 46 12 C46 29.82 46 47.64 46 66 C39.73 66 33.46 66 27 66 C27 48.18 27 30.36 27 12 C18.09 12 9.18 12 0 12 C0 8.04 0 4.08 0 0 Z " fill="#202044" transform="translate(629,129)"/>
<path d="M0 0 C1.29432887 0.70868197 2.5696095 1.45455008 3.8125 2.25 C4.740625 2.8275 5.66875 3.405 6.625 4 C10.71773254 8.20966776 13.01272249 12.77464701 13.3125 18.6875 C12.98574596 24.60991692 11.2306334 29.84215653 6.9765625 34.078125 C-0.99487211 40.36975539 -9.4248985 41.13983661 -19.26220703 40.49267578 C-25.219212 39.74181819 -30.18290117 36.68639901 -34.1875 32.3125 C-37.65511748 27.00271073 -38.73318804 22.5799813 -38.1875 16.25 C-36.33831876 9.17721921 -33.29968908 4.25268206 -26.9375 0.4375 C-18.89258376 -3.32871264 -8.21009966 -3.44604517 0 0 Z " fill="#F0F3EF" transform="translate(1013.1875,142.75)"/>
<path d="M0 0 C5.06785765 3.45087583 9.91542244 8.12126733 11.875 14 C12.36882091 21.28385849 11.0041059 26.53034595 7.1875 32.75 C0.00435382 39.73900709 -8.92899074 40.4243376 -18.5390625 40.34375 C-25.14513997 39.71048767 -30.60201038 37.00196272 -35.125 32.125 C-38.68813399 26.55760314 -40.10701372 20.58452792 -39.125 14 C-37.14296646 7.33886198 -33.02750915 3.45137406 -27.125 0 C-19.7425756 -3.74918936 -7.44593774 -3.82602683 0 0 Z " fill="#F0F3EF" transform="translate(592.125,143)"/>
<path d="M0 0 C0.66 0 1.32 0 2 0 C2.66 1.32 3.32 2.64 4 4 C3.34 4 2.68 4 2 4 C2.0371711 26.95713622 2.09703849 49.91411346 2.18390274 72.87111759 C2.22370685 83.53053603 2.2560924 94.1898805 2.27099609 104.84936523 C2.28400547 114.14051074 2.31095194 123.43149358 2.35461307 132.72254747 C2.37724387 137.64181676 2.39290971 142.56088529 2.39188385 147.48021126 C2.3911382 152.11205741 2.40905086 156.74345948 2.44116783 161.37519073 C2.4496746 163.07347781 2.45141147 164.77181464 2.44580269 166.47011375 C2.43915268 168.793464 2.4571052 171.11540544 2.48101807 173.43861389 C2.48654882 175.38682336 2.48654882 175.38682336 2.49219131 177.3743906 C3.11597805 181.82805022 4.56698026 184.25640748 7 188 C3.11678648 186.52705694 1.78264761 184.71111037 0 181 C-0.27624097 178.42426229 -0.39333056 176.09765391 -0.36076355 173.52726746 C-0.36332682 172.78387235 -0.3658901 172.04047725 -0.36853105 171.27455503 C-0.37346466 168.78852753 -0.35698341 166.30311003 -0.34057617 163.81713867 C-0.33972981 162.03317275 -0.34020523 160.24920579 -0.34190369 158.46524048 C-0.34276469 153.62469029 -0.32512177 148.78436296 -0.30418181 143.94386458 C-0.28543268 138.88432554 -0.28366596 133.82478144 -0.28010559 128.76521301 C-0.27077995 119.18531108 -0.24615911 109.60551181 -0.21605712 100.02565509 C-0.1825293 89.11886874 -0.16603116 78.21207749 -0.15097082 67.30525243 C-0.11961004 44.87011137 -0.06683941 22.43506143 0 0 Z " fill="#48946C" transform="translate(99,97)"/>
<path d="M0 0 C0.99 0.33 1.98 0.66 3 1 C1.47005208 2.23697917 -0.05989583 3.47395833 -1.58984375 4.7109375 C-3.13266437 5.9666391 -3.13266437 5.9666391 -4 8 C-4.12286155 10.92841546 -4.18577144 13.83456398 -4.20532227 16.76416016 C-4.21522186 17.67153427 -4.22512146 18.57890839 -4.23532104 19.51377869 C-4.26698609 22.5221798 -4.29171324 25.53059673 -4.31640625 28.5390625 C-4.33697146 30.62129128 -4.35796781 32.70351584 -4.37937927 34.78573608 C-4.4346447 40.27332145 -4.48403424 45.76094476 -4.53222656 51.24859619 C-4.58240897 56.84545276 -4.63811203 62.44225404 -4.69335938 68.0390625 C-4.80099562 79.02599446 -4.90242843 90.01297437 -5 101 C-5.33 101 -5.66 101 -6 101 C-6.13898868 88.56965257 -6.24561577 76.13948982 -6.31087303 63.70852375 C-6.34219267 57.93634417 -6.3846783 52.16469599 -6.45263672 46.39282227 C-6.51780481 40.82311465 -6.55370127 35.2539183 -6.56926346 29.68385887 C-6.58035425 27.55831031 -6.60201227 25.43278991 -6.63438034 23.30745888 C-6.67790908 20.33106544 -6.68393551 17.35678721 -6.68115234 14.38012695 C-6.702724 13.50043243 -6.72429565 12.62073792 -6.746521 11.71438599 C-6.68794973 5.9294545 -6.68794973 5.9294545 -4.72392654 3.27596092 C-3.14492798 1.85124207 -3.14492798 1.85124207 0 0 Z " fill="#157246" transform="translate(285,24)"/>
<path d="M0 0 C0 3 0 3 -1.6171875 4.97363281 C-2.36226563 5.70936523 -3.10734375 6.44509766 -3.875 7.203125 C-5.10669922 8.42708984 -5.10669922 8.42708984 -6.36328125 9.67578125 C-7.23339844 10.52527344 -8.10351562 11.37476563 -9 12.25 C-9.83917969 13.08402344 -10.67835938 13.91804687 -11.54296875 14.77734375 C-17.72850055 20.88615578 -23.99496458 26.8349436 -31 32 C-29.38632745 27.95739527 -26.51803291 25.24585494 -23.4765625 22.24609375 C-22.93397797 21.70396744 -22.39139343 21.16184113 -21.83236694 20.60328674 C-20.68650862 19.4604427 -19.53822761 18.32002325 -18.38769531 17.18188477 C-16.63289765 15.44531561 -14.88620671 13.70090583 -13.140625 11.95507812 C-12.02390758 10.84327765 -10.90673497 9.73193413 -9.7890625 8.62109375 C-9.26913727 8.10228134 -8.74921204 7.58346893 -8.21353149 7.04893494 C-5.60871362 4.47777372 -2.99901456 2.10288577 0 0 Z " fill="#31865C" transform="translate(262,161)"/>
<path d="M0 0 C0 0.66 0 1.32 0 2 C-1.670625 2.2165625 -1.670625 2.2165625 -3.375 2.4375 C-9.59105309 3.96115067 -13.59047988 8.61317038 -18 13 C-18.57621094 13.56203125 -19.15242187 14.1240625 -19.74609375 14.703125 C-20.84567373 15.7871302 -21.92622261 16.89043003 -23 18 C-23.66 17.67 -24.32 17.34 -25 17 C-22.40401115 14.3460351 -19.79688166 11.70329296 -17.1875 9.0625 C-16.08051758 7.93038086 -16.08051758 7.93038086 -14.95117188 6.77539062 C-14.23896484 6.05673828 -13.52675781 5.33808594 -12.79296875 4.59765625 C-12.1383667 3.93258057 -11.48376465 3.26750488 -10.80932617 2.58227539 C-7.45573498 -0.35047653 -4.25632113 -0.09458491 0 0 Z " fill="#3A8B62" transform="translate(156,22)"/>
<path d="M0 0 C0 3 0 3 -1.49609375 4.578125 C-2.45708984 5.40570313 -2.45708984 5.40570313 -3.4375 6.25 C-7.01774973 9.65015668 -7.80698403 11.98158484 -8 17 C-8.33 17.99 -8.66 18.98 -9 20 C-10.55950551 18.44049449 -10.28196698 16.91122869 -10.375 14.75 C-10.33419754 11.06612097 -10.20456579 10.25716842 -7.8125 7.25 C-6.4203125 6.13625 -6.4203125 6.13625 -5 5 C-4.071875 4.071875 -3.14375 3.14375 -2.1875 2.1875 C-1.1046875 1.1046875 -1.1046875 1.1046875 0 0 Z " fill="#358862" transform="translate(113,57)"/>
<path d="M0 0 C1.26823485 3.65393537 0.75715321 6.49070026 0.0625 10.25 C-0.13214844 11.32765625 -0.32679688 12.4053125 -0.52734375 13.515625 C-0.68332031 14.33546875 -0.83929688 15.1553125 -1 16 C-1.66 16 -2.32 16 -3 16 C-3.08075665 13.70890403 -3.13907731 11.41700733 -3.1875 9.125 C-3.22230469 7.84882812 -3.25710938 6.57265625 -3.29296875 5.2578125 C-3.19628906 4.18273437 -3.09960938 3.10765625 -3 2 C-2.01 1.34 -1.02 0.68 0 0 Z " fill="#319A60" transform="translate(286,109)"/>
<path d="M0 0 C1.91796875 0.44140625 1.91796875 0.44140625 3.91796875 2.44140625 C3.26570313 2.45558594 2.6134375 2.46976563 1.94140625 2.484375 C-4.47284566 2.8344153 -7.58322311 3.82420842 -12.08203125 8.44140625 C-12.74203125 8.11140625 -13.40203125 7.78140625 -14.08203125 7.44140625 C-9.84470462 2.10046722 -6.96575333 -0.3716667 0 0 Z " fill="#33875A" transform="translate(277.08203125,152.55859375)"/>
<path d="M0 0 C0.66 0 1.32 0 2 0 C3 3 3 3 2.5 5.4375 C1.98666488 8.06834251 2.16441342 9.49324027 3 12 C1 10.375 1 10.375 -1 8 C-1.31452272 4.85477278 -1.42041821 2.84083641 0 0 Z " fill="#287854" transform="translate(226,196)"/>
<path d="M0 0 C1 2 1 2 0.875 4.4375 C0.74648654 7.06223572 0.74648654 7.06223572 2.5 8.8125 C2.995 9.204375 3.49 9.59625 4 10 C3.67 10.66 3.34 11.32 3 12 C0.69 9.69 -1.62 7.38 -4 5 C-3.34 4.67 -2.68 4.34 -2 4 C-0.86649466 1.98330173 -0.86649466 1.98330173 0 0 Z " fill="#54AB7D" transform="translate(235,207)"/>
<path d="M0 0 C0.99 0.33 1.98 0.66 3 1 C0.36 2.98 -2.28 4.96 -5 7 C-5 6.01 -5 5.02 -5 4 C-2.6875 1.75 -2.6875 1.75 0 0 Z " fill="#307F58" transform="translate(285,24)"/>
</svg>
